PathFileType	3	(X/Y/Z)	D:\Jess\PFP\Labelled\PA17\20250829\SRRun01.trc
DataRate	CameraRate	NumFrames	NumMarkers	Units	OrigDataRate	OrigDataStartFrame	OrigNumFrames
250.0	250.0	4	33	mm	250.0	35937	2501
Frame#	Time	C7			T10			CLAV			LSHO			RSHO			LASIS			RASIS			LPSIS			RPSIS			LILCR			RILCR			LGTR			LTHI			LLTHI			LLEP			LPSH			LLSH			LDSH			LLMAL			LTOE			L5TH			LHEE			RGTR			RTHI			RLTHI			RLEP			RPSH			RLSH			RDSH			RLMAL			RTOE			R5TH			RHEE			
		X1	Y1	Z1	X2	Y2	Z2	X3	Y3	Z3	X4	Y4	Z4	X5	Y5	Z5	X6	Y6	Z6	X7	Y7	Z7	X8	Y8	Z8	X9	Y9	Z9	X10	Y10	Z10	X11	Y11	Z11	X12	Y12	Z12	X13	Y13	Z13	X14	Y14	Z14	X15	Y15	Z15	X16	Y16	Z16	X17	Y17	Z17	X18	Y18	Z18	X19	Y19	Z19	X20	Y20	Z20	X21	Y21	Z21	X22	Y22	Z22	X23	Y23	Z23	X24	Y24	Z24	X25	Y25	Z25	X26	Y26	Z26	X27	Y27	Z27	X28	Y28	Z28	X29	Y29	Z29	X30	Y30	Z30	X31	Y31	Z31	X32	Y32	Z32	X33	Y33	Z33	

938	143.744	786.0916739491214	1474.523144332954	-1100.693297833895	807.7154929957204	1238.472660847335	-1031.711042085602	764.4082851065418	1379.728124010392	-1242.210872857916	615.7893596764521	1452.379092737073	-1123.65644514268	943.4289332773651	1430.137902290078	-1201.412729085361	656.7247838065839	955.1949806370229	-1210.552640080087	896.035634132837	939.2366600752252	-1239.465222865296	775.2916493625579	1020.11392166143	-1021.447959784284	811.9289834966722	1021.405851262994	-1026.956768617978	615.5021605562749	1036.514009244228	-1133.29284477148	948.4491634267532	1028.925110082561	-1183.659976851009	591.4747971948119	894.2682017937226	-1132.780526031135	684.0510525694083	749.4311754797743	-1291.017584625839	633.1237237234635	619.7345030323568	-1203.647175763349	670.3534438820226	470.2450112152257	-1254.603420944924	733.830006923003	409.2286170891449	-1295.549451920037	665.5337601934609	282.1374206439166	-1198.517257469631	726.4293316994484	196.3158193659198	-1238.003142196587	694.1156394552952	97.55078324300879	-1171.581300637425	689.9408333978151	61.4294984228658	-1310.696048718597	656.7522658366282	42.10938139941635	-1281.305355031687	733.1527420629316	68.51789679264192	-1105.721223710972	984.5077536492378	883.4051708635999	-1167.375317933161	886.5019888193642	681.9866700167474	-1242.710487100263	961.9116600891641	609.0690392478165	-1114.75184465708	941.575605969218	459.7713983309801	-1074.017514219093	905.2874124438272	370.8642859994312	-1062.920780047021	930.7558867405642	392.3966663268466	-903.1882234733416	905.7931468510237	304.762355261673	-868.758056219684	905.0252022737091	295.1247238076244	-738.5842204696548	944.571709650643	150.8162003949586	-735.5498317737697	959.078833428862	182.5142986039163	-692.0561612419141	839.8633461407967	325.0261686437881	-695.2444170107015	
939	143.748	785.1571502215323	1472.856988376331	-1100.765259684338	806.1183689962184	1236.434035683159	-1030.999563280959	764.6064838490231	1377.204730541546	-1242.453269761806	614.4163056159397	1450.020459883144	-1124.521404231658	943.7241941068727	1427.499988326231	-1200.144862215414	654.9296288995441	952.4307719881033	-1209.322587593407	895.5720003082597	935.8593881415094	-1238.504638107187	775.9634532628216	1017.328952513471	-1019.96408999865	812.6779981250227	1018.245255351091	-1025.474054292773	614.6956216484435	1033.472872558986	-1132.020606258001	948.8500338622196	1024.869805511916	-1182.345369644021	590.6404381960429	892.862038566205	-1131.042013431665	682.5596823979702	748.7288214879583	-1290.134294620533	632.9254218136259	618.4603850903957	-1202.216791915089	670.7937603806362	469.1236132176406	-1253.173996910262	734.2472121687437	407.4785661216618	-1293.060741259292	665.9403624049769	282.0061181551893	-1193.537603096193	726.8709275360584	195.3661747101183	-1231.248129127214	694.6166664289826	97.91080413902978	-1162.614181112177	690.2488349282264	61.1550966384202	-1301.374878612743	656.9131296648064	42.28297037284348	-1271.849571808939	733.371507668864	68.93809617609195	-1096.382577019155	984.1831328900323	879.2580155801934	-1167.758814053695	886.5272067951685	681.0443368077316	-1244.704628556666	962.8988761388118	606.790901170678	-1118.035381552084	942.5775366119821	457.990916043769	-1079.584643791289	906.6764568339362	369.1720812682462	-1068.8674108437	930.7442059864566	391.95419099638	-908.9099255636448	906.0001475762568	304.6638508954449	-874.064455607715	904.2457028759162	296.1990108972587	-743.875231297988	945.8749734045387	152.6618958683708	-741.1902882715005	960.0255328058252	184.5785766116214	-697.7286798149084	838.5320056456397	325.2186167273159	-700.3717403032462	
940	143.752	784.266796542053	1471.350382735048	-1100.837730031368	804.5844197114681	1234.604529584933	-1030.260737262878	764.868726989473	1374.853011078585	-1242.653401899439	613.1166475874776	1447.776714296527	-1125.399914631302	944.0261963629866	1425.040499207615	-1198.838876237047	653.1654767402797	949.9073797018359	-1208.086855453945	895.1404453183853	932.628702336221	-1237.48445356342	776.7560564808706	1014.856327812275	-1018.524085764348	813.5435875297335	1015.373377595408	-1024.025316889407	613.9677222546277	1030.815487824165	-1130.669605066095	949.2141362007923	1020.989297180669	-1180.931593752917	589.8463844203915	891.7763829709147	-1129.300544316997	681.0822404939212	747.9457399753046	-1289.027645970362	632.7383082452914	617.2142760708576	-1200.59296469163	671.155617135993	467.9486799756544	-1251.314619888698	734.5364493100052	405.6926160340166	-1290.200539575571	666.27126733852	281.8189657479103	-1188.30152891837	727.2309448570312	194.4557408845289	-1224.320342825252	695.0437027730856	98.27675193328713	-1153.617917613372	690.5322408196848	61.00685635356464	-1292.018567822842	657.076348546317	42.51143345041061	-1262.394620397737	733.5556683743702	69.31888593187894	-1087.051086599144	983.893337741503	875.3591791375605	-1168.11631319545	886.4815863084335	680.3355961677539	-1246.692615411131	963.8727501034662	604.755969478462	-1121.362951465182	943.5337560282194	456.36374150548	-1085.321966139237	907.9427100457654	367.6376886813648	-1074.995987498735	930.7392279808378	391.4772829805481	-914.8361994873941	906.1671610763076	304.4885920262837	-879.6576492773211	903.4839348775156	297.0324844257294	-749.4767869550147	947.0828909352401	154.2486099232097	-747.2798356788195	960.9194557659414	186.3382688884303	-703.8264175866161	837.2736140849387	325.1624819383128	-705.7489047369069	
941	143.756	783.4203605333448	1470.004025136618	-1100.900429879992	803.1200754000363	1232.99250154882	-1029.497810018273	765.194294595319	1372.688773348477	-1242.805457917879	611.9012022449836	1445.662736187808	-1126.299334432067	944.328427998994	1422.781187550272	-1197.492156443143	651.4670089267405	947.6511448533137	-1206.863992062744	894.7479969888186	929.59578705091	-1236.417015683429	777.6462827628361	1012.715732695197	-1017.150332009176	814.5000339549352	1012.820252744946	-1022.634765864658	613.3298306111435	1028.571035351674	-1129.250175237377	949.5307976542795	1017.347417653235	-1179.422497003619	589.111675872578	890.9831912394719	-1127.571106571772	679.642548411918	747.0535958278246	-1287.714655496407	632.5643826980537	615.9747512347974	-1198.768459480692	671.4243735805159	466.695367570924	-1248.995477604071	734.6864819685831	403.8549313324581	-1286.955575487222	666.5178431642437	281.5529154041915	-1182.805012641248	727.5028199358952	193.5662440510541	-1217.218381525275	695.388359611542	98.62858955174403	-1144.591964870204	690.7773927807102	60.94605953468759	-1282.63059977313	657.2263258636126	42.76065176431785	-1252.936596332096	733.7009651529814	69.65625341730396	-1077.722294740532	983.6356334072165	871.7677286171528	-1168.426832745599	886.3529907082325	679.8612409901147	-1248.672531036168	964.8226513042707	602.9602476989793	-1124.738056706179	944.4399452504141	454.8891188007037	-1091.230874216865	909.0745758966204	366.265649231749	-1081.294950813526	930.7404294996295	390.9679919884103	-920.9518328814792	906.2926261897525	304.2342539540648	-885.5231332900136	902.7483970103841	297.613933335251	-755.3687571068671	948.1855535230528	155.5588613780583	-753.812752832289	961.7578568532613	187.7701314882258	-710.3404695836624	836.1029825763082	324.8513918747036	-711.3513173713675	
